<svg xmlns="http://www.w3.org/2000/svg" width="510.308" height="40" viewBox="0 0 510.308 40">
  <g id="Grupo_502" data-name="Grupo 502" transform="translate(-45.715 -212.918)">
    <g id="Grupo_491" data-name="Grupo 491">
      <rect id="Rectangle_198" data-name="Rectangle 198" width="76" height="40" rx="4" transform="translate(219.438 212.918)" fill="#f2ff2a"/>
      <g id="Grupo_490" data-name="Grupo 490">
        <path id="Caminho_105" data-name="Caminho 105" d="M228.2,216.654h58.479v32.528H228.2V216.654Z" fill="#f2ff2a"/>
        <path id="Caminho_106" data-name="Caminho 106" d="M231.154,243.074v3.152h2.414c.579,0,2.017-.065,2.017-1.561,0-.809-.253-1.372-1.221-1.495a1.714,1.714,0,0,0,.32-.094l-3.53,0Zm5.429,0-.966,3.152h1.214l.3-1.07h1.3l.3,1.07h1.288l-.947-3.152h-1.16l.331,1.339h-.933l.3-1.339Zm3.723,0v3.152h1.042v-3.152Zm1.07,0,1.316,3.152h1.448v-3.152H243.1v1.445l-.6-1.445Zm3.275,0c-.013.235-.015.486-.015.749,0,1.452-.044,2.545,1.836,2.545,1.067,0,1.69-.423,1.69-1.74h-1.213c-.016.389-.022,1-.477,1-.516,0-.592-.312-.592-1.808,0-.293,0-.539.015-.747l-1.244,0Zm3.885,0c-.014.243-.014.495-.014.749,0,1.289,0,2.545,1.88,2.545s1.879-1.256,1.879-2.545c0-.254,0-.506-.014-.747l-1.26,0c.012.215.016.464.016.749,0,1.262-.071,1.808-.621,1.808s-.622-.546-.622-1.808c0-.285,0-.534.016-.749Zm5.081,0v3.152h1.835c1.924,0,1.8-1.7,1.8-2.449,0-.252-.008-.485-.027-.7l-1.229,0c.017.224.017.477.017.738,0,1.214-.115,1.677-.7,1.677h-.467v-2.415Zm4.1,0c-.015.246-.015.5-.015.76,0,1.284,0,2.534,1.881,2.534s1.881-1.25,1.881-2.534c0-.258,0-.514-.015-.758l-1.261,0c.013.216.016.469.016.76,0,1.257-.071,1.8-.621,1.8s-.622-.543-.622-1.8c0-.291,0-.544.017-.76Zm5.017,0v3.153h2.414c.579,0,2.016-.065,2.016-1.561,0-.809-.253-1.373-1.22-1.495a1.833,1.833,0,0,0,.331-.1Zm4.837,0v3.151h1.259v-3.151Zm2.322,0c-.056.306-.24.528-.507.511l-.351,0,1.147,2.635H272.2l.3-1.07h1.3l.3,1.07h2.925c.809,0,1.628-.108,1.628-1.359,0-1.173-1.382-1.3-1.9-1.795l-1.663,0c.333,1.1,2.27,1.133,2.27,1.871a.494.494,0,0,1-.534.549h-1.659l-.727-2.42h-1.161l.332,1.342h-.932l.3-1.342h-1.036l-.841,2.717-.854-1.889a.942.942,0,0,0,.842-.825l-1.2,0Zm9.214,0v3.152h1.228v-3.152Zm1.949,0v3.152h2.663v-.731h-1.434v-2.421Zm-48.123.57h.19c.721,0,.949.319.949.842,0,.825-.684.833-.987.833h-.448v-1.666l.3-.009Zm31.664.009h.306c.588,0,.773.318.773.841,0,.826-.557.834-.8.834h-.65v-1.666l.375-.009Z" fill="#334da0" fill-rule="evenodd"/>
        <path id="Caminho_107" data-name="Caminho 107" d="M234.684,243.074a1.22,1.22,0,0,0,.792-1.22c0-1.258-.859-1.528-1.9-1.528h-2.423v2.748Zm2.929,0,.143-.637.158.637h1.16l-.5-1.677H237.1l-.514,1.677Zm3.735,0v-.069l.028.069h1.116l-.7-1.677h-1.484v1.677Zm2.792,0V241.4H243.1v1.677Zm1.755,0c.042-.888.189-1.059.554-1.059.323,0,.469.246.469.9h1.206c.045-1.058-.542-1.638-1.7-1.638-1.417,0-1.708.737-1.768,1.8Zm3.9,0c.041-.732.18-1.059.606-1.059s.564.327.605,1.059h1.26c-.057-.991-.352-1.8-1.865-1.8s-1.808.8-1.866,1.8l1.26,0Zm5.045,0v-.939h.5c.474,0,.613.392.654.937l1.229,0c-.1-1.077-.495-1.692-1.726-1.692h-1.88v1.692Zm4.141,0c.042-.719.182-1.04.605-1.04s.563.321.6,1.04h1.261c-.06-.98-.36-1.774-1.866-1.774s-1.806.794-1.866,1.776l1.261,0Zm7.3,0a1.228,1.228,0,0,0,.781-1.219c0-1.258-.859-1.528-1.9-1.528h-2.423v2.747Zm2.555,0v-.935h.417a.667.667,0,0,1,.664.733,1.134,1.134,0,0,1-.018.205l1.2,0a2.252,2.252,0,0,0,.035-.414,1.149,1.149,0,0,0-1.251-1.264h-2.3v1.678Zm4.148,0,.143-.634.156.634h1.161l-.5-1.678h-1.473l-.52,1.678Zm3.773,0a.571.571,0,0,1-.193-.423.483.483,0,0,1,.548-.515h1.12v-.743h-1.573c-1.294,0-1.614.584-1.614,1.339a1.146,1.146,0,0,0,.049.341Zm3.584,0V241.4h-1.228v1.677Zm1.95,0V241.4H281.06v1.677Zm-49.648-.332v-1.509h.533a.764.764,0,0,1,.826.752.712.712,0,0,1-.75.752h-.5l-.109.005Zm31.585.009v-1.509h.719a.691.691,0,0,1,.673.752c0,.572-.355.752-.61.752H264.6l-.374.005Z" fill="#334da0" fill-rule="evenodd"/>
        <path id="Caminho_108" data-name="Caminho 108" d="M262.7,222.075l1.812,1.242,1.774-1.186,0-2.435-3.589,2.379Zm-10.482,12.907-1.806-1.232-1.809,1.234v2.387l3.615-2.389Zm6.86-10.535,1.77,1.191-8.411,5.691,5.2,3.508,2.441-1.654-1.9-1.256,4.376-2.933,3.662,2.429-8.846,5.9-8.729-5.856,10.436-7.017Zm-3.314,8.073L254,231.33l8.411-5.691-5.2-3.508-2.441,1.654,1.9,1.256-4.376,2.933-3.661-2.429,8.814-5.9,8.752,5.881-10.428,6.991Z" fill="#334da0" fill-rule="evenodd"/>
      </g>
    </g>
    <g id="Grupo_494" data-name="Grupo 494">
      <rect id="Rectangle_198-2" data-name="Rectangle 198" width="76" height="40" rx="4" transform="translate(132.577 212.918)" fill="#fff"/>
      <g id="Grupo_493" data-name="Grupo 493">
        <path id="Caminho_109" data-name="Caminho 109" d="M181.795,244.4c-.018-.046-.024-.076-.031-.073s-.038.019-.057.026a1.242,1.242,0,0,1-.592.142,1.019,1.019,0,0,1-1.011-1.077c0-.723.4-1.115.934-1.115a1.176,1.176,0,0,1,.7.209,2.79,2.79,0,0,1,.444-.9,2.532,2.532,0,0,0-.382-.222h0a2.133,2.133,0,0,0-.891-.185,2.191,2.191,0,0,0,0,4.378,2.893,2.893,0,0,0,1.015-.185c.1-.038.251-.11.316-.142a3.474,3.474,0,0,1-.449-.852" fill="#58595b"/>
        <path id="Caminho_110" data-name="Caminho 110" d="M154.577,239.879h2.331a1.38,1.38,0,0,1,1.567,1.422,1.254,1.254,0,0,1-.849,1.309v.016a1.149,1.149,0,0,1,.974,1.237c0,1.341-1.016,1.622-1.879,1.622h-2.144v-5.606Zm1.285,4.546h.493c.469,0,.96-.081.96-.651,0-.61-.5-.666-.946-.666h-.507v1.317Zm0-2.329h.472c.421,0,.857-.121.857-.594,0-.514-.414-.562-.842-.562h-.487V242.1Z" fill="#58595b"/>
        <path id="Caminho_111" data-name="Caminho 111" d="M170.4,245.485h-1.146v-.629h-.013a1.358,1.358,0,0,1-1.237.726c-1.071,0-1.644-1.029-1.644-2.265,0-1.028.546-2.113,1.541-2.113a1.356,1.356,0,0,1,1.236.635h.014v-1.974H170.4v5.62Zm-2-1.012c.415,0,.761-.457.761-1.068,0-.635-.305-1.091-.761-1.091-.482,0-.752.481-.752,1.035,0,.667.283,1.124.752,1.124" fill="#58595b"/>
        <path id="Caminho_112" data-name="Caminho 112" d="M182.391,243.4a2.095,2.095,0,1,1,2.093,2.184,2.023,2.023,0,0,1-2.093-2.184m2.9,0c0-.628-.236-1.181-.808-1.181s-.808.553-.808,1.181.235,1.172.808,1.172.808-.554.808-1.172" fill="#58595b"/>
        <path id="Caminho_113" data-name="Caminho 113" d="M165.786,245.485a5.966,5.966,0,0,1-.069-.987v-1.559A1.564,1.564,0,0,0,164,241.2a3.283,3.283,0,0,0-1.416.288v.99a2.079,2.079,0,0,1,1.147-.314c.449,0,.814.153.822.724a3.07,3.07,0,0,0-.581-.058c-.662,0-1.858.154-1.858,1.431a1.246,1.246,0,0,0,1.347,1.317,1.211,1.211,0,0,0,1.105-.649v.552Zm-1.222-1.327a.847.847,0,0,1-.774.434.462.462,0,0,1-.512-.459c0-.4.332-.554.754-.554.186,0,.373.016.532.024v.555Z" fill="#58595b"/>
        <path id="Caminho_114" data-name="Caminho 114" d="M161.512,241.2c-.54,0-.85.338-1.065.867h-.013v-.77H159.3v4.184h1.243v-1.767c0-.818.321-1.311.9-1.352a1.193,1.193,0,0,1,.426.067v-1.165a1.159,1.159,0,0,0-.359-.064" fill="#58595b"/>
        <path id="Caminho_115" data-name="Caminho 115" d="M174.788,243.55c0-1.245-.482-2.346-1.815-2.346a1.937,1.937,0,0,0-1.928,2.185,2.027,2.027,0,0,0,2.093,2.193,3.176,3.176,0,0,0,1.32-.265V244.3a2.074,2.074,0,0,1-1.1.321c-.609,0-.989-.225-1.057-.8h2.485v-.265Zm-2.5-.554c.028-.482.242-.876.691-.876.5,0,.691.394.691.876Z" fill="#58595b"/>
        <path id="Caminho_116" data-name="Caminho 116" d="M176.878,241.2a1.391,1.391,0,0,0-1.533,1.359c0,1.509,1.769,1.011,1.769,1.719,0,.288-.249.335-.505.335a2.726,2.726,0,0,1-1.167-.288v1a3.108,3.108,0,0,0,1.236.257c.816,0,1.679-.281,1.679-1.4,0-1.591-1.852-1.077-1.852-1.727,0-.234.3-.3.574-.29a2.087,2.087,0,0,1,.993.312v-1.027a3.075,3.075,0,0,0-1.194-.249" fill="#58595b"/>
        <g id="Grupo_492" data-name="Grupo 492">
          <path id="Caminho_117" data-name="Caminho 117" d="M178.888,237.077H165.747s-3.682,0-3.682-3.682V220.254h13.141s3.682,0,3.682,3.682v13.141Z" fill="#e2183d"/>
          <path id="Caminho_118" data-name="Caminho 118" d="M169.717,234.713h-.828v-4.244h.828v4.244Z" fill="#fff"/>
          <path id="Caminho_119" data-name="Caminho 119" d="M171.827,234.713h-1.357v-5.825h1.357v5.825Z" fill="#fff"/>
          <path id="Caminho_120" data-name="Caminho 120" d="M168.146,224.829a4.272,4.272,0,0,1,3.673-.9,3.929,3.929,0,0,1,1.792.849s.115.108.2.019c0,0,.113-.088-.013-.221a4.1,4.1,0,0,0-1.988-1.337,5.232,5.232,0,0,0-3.674.228,3.851,3.851,0,0,0-1.782,1.769,10.321,10.321,0,0,0-1.586.675s-.2.079-.125.235c0,0,.065.112.241.029,0,0,.631-.218,1.239-.354a4.687,4.687,0,0,0,1.3,4.831.175.175,0,0,0,.215.034.137.137,0,0,0,.029-.187,5.4,5.4,0,0,1-.7-1.842,4.42,4.42,0,0,1,.526-3.066,10.086,10.086,0,0,1,4.32.423s3.377,1.1,2.527,3.145a3.1,3.1,0,0,1-1.179,1.352s-.156.092-.071.222a.182.182,0,0,0,.23.037,3.958,3.958,0,0,0,2.043-1.612s1.25-1.912-1.7-3.473a8.1,8.1,0,0,0-1.853-.664,10.828,10.828,0,0,0-3.668-.2" fill="#fff"/>
        </g>
      </g>
    </g>
    <g id="Grupo_496" data-name="Grupo 496">
      <rect id="Rectangle_198-3" data-name="Rectangle 198" width="76" height="40" rx="4" transform="translate(480.023 212.918)" fill="#333883"/>
      <g id="Grupo_495" data-name="Grupo 495">
        <path id="Caminho_121" data-name="Caminho 121" d="M517.33,230.056h-2.78v13.6h2.78v-13.6Z" fill="#32347f" fill-rule="evenodd"/>
        <path id="Caminho_122" data-name="Caminho 122" d="M519.879,230.078v2.549h2.34v7.67a3.746,3.746,0,0,0,.85,2.549,2.864,2.864,0,0,0,2.244,1.013,4.395,4.395,0,0,0,2.459-.618l.045-.023v-.044l.663-2.587-.164.1a4.013,4.013,0,0,1-2.057.678c-.865,0-1.3-.514-1.3-1.528v-7.215h2.84v-2.549h-2.84V225.83l-2.736,1.468v2.78Z" fill="#32347f" fill-rule="evenodd"/>
        <path id="Caminho_123" data-name="Caminho 123" d="M533.332,230.056h-2.8v13.6h2.8v-13.6Z" fill="#32347f" fill-rule="evenodd"/>
        <path id="Caminho_124" data-name="Caminho 124" d="M512.955,232.2l-.06-.045a5.959,5.959,0,0,0-4.807-2.318,7.076,7.076,0,0,0-4.994,1.841,7.451,7.451,0,0,0,0,10.4,7.028,7.028,0,0,0,4.994,1.826,5.988,5.988,0,0,0,4.807-2.3l.06-.045-1.573-1.9-.06.059a4.639,4.639,0,0,1-3.294,1.536,4.076,4.076,0,0,1-3.049-1.245,4.236,4.236,0,0,1-1.2-3.13,4.313,4.313,0,0,1,1.2-3.153,4.141,4.141,0,0,1,3.049-1.223,4.639,4.639,0,0,1,3.294,1.536l.06.059,1.573-1.9Z" fill="#32347f" fill-rule="evenodd"/>
        <path id="Caminho_125" data-name="Caminho 125" d="M515.921,227.82a11.589,11.589,0,0,1,3.712-2.572,10.624,10.624,0,0,1,4.248-.864,10.858,10.858,0,0,1,4.271.864,11.791,11.791,0,0,1,3.682,2.572l.045.037h3.19l-.119-.186a13.659,13.659,0,0,0-4.875-4.219,13.387,13.387,0,0,0-12.4,0,13.575,13.575,0,0,0-4.867,4.219l-.127.186H515.9l.022-.037Z" fill="#ec1b2e" fill-rule="evenodd"/>
        <path id="Caminho_126" data-name="Caminho 126" d="M517.33,230.056h-2.78v13.6h2.78v-13.6Z" fill="#fff" fill-rule="evenodd"/>
        <path id="Caminho_127" data-name="Caminho 127" d="M519.879,230.078v2.549h2.34v7.67a3.746,3.746,0,0,0,.85,2.549,2.864,2.864,0,0,0,2.244,1.013,4.395,4.395,0,0,0,2.459-.618l.045-.023v-.044l.663-2.587-.164.1a4.013,4.013,0,0,1-2.057.678c-.865,0-1.3-.514-1.3-1.528v-7.215h2.84v-2.549h-2.84V225.83l-2.736,1.468v2.78Z" fill="#fff" fill-rule="evenodd"/>
        <path id="Caminho_128" data-name="Caminho 128" d="M533.332,230.056h-2.8v13.6h2.8v-13.6Z" fill="#fff" fill-rule="evenodd"/>
        <path id="Caminho_129" data-name="Caminho 129" d="M512.955,232.2l-.06-.045a5.959,5.959,0,0,0-4.807-2.318,7.076,7.076,0,0,0-4.994,1.841,7.451,7.451,0,0,0,0,10.4,7.028,7.028,0,0,0,4.994,1.826,5.988,5.988,0,0,0,4.807-2.3l.06-.045-1.573-1.9-.06.059a4.639,4.639,0,0,1-3.294,1.536,4.076,4.076,0,0,1-3.049-1.245,4.236,4.236,0,0,1-1.2-3.13,4.313,4.313,0,0,1,1.2-3.153,4.141,4.141,0,0,1,3.049-1.223,4.639,4.639,0,0,1,3.294,1.536l.06.059,1.573-1.9Z" fill="#fff" fill-rule="evenodd"/>
        <path id="Caminho_130" data-name="Caminho 130" d="M515.921,227.82a11.589,11.589,0,0,1,3.712-2.572,10.624,10.624,0,0,1,4.248-.864,10.858,10.858,0,0,1,4.271.864,11.791,11.791,0,0,1,3.682,2.572l.045.037h3.19l-.119-.186a13.659,13.659,0,0,0-4.875-4.219,13.387,13.387,0,0,0-12.4,0,13.575,13.575,0,0,0-4.867,4.219l-.127.186H515.9l.022-.037Z" fill="#eb2d2e" fill-rule="evenodd"/>
      </g>
    </g>
    <g id="Grupo_498" data-name="Grupo 498">
      <rect id="Rectangle_198-4" data-name="Rectangle 198" width="76" height="40" rx="4" transform="translate(393.161 212.918)" fill="#f0f0f0"/>
      <g id="Grupo_497" data-name="Grupo 497">
        <path id="Caminho_131" data-name="Caminho 131" d="M411.858,225.786v14.263l-7.169-7.131,7.169-7.131Z" fill="#da000a" fill-rule="evenodd"/>
        <path id="Caminho_132" data-name="Caminho 132" d="M411.858,225.786h14.23l-7.142,7.165-7.115-7.138.027-.027Z" fill="#da000a" fill-rule="evenodd"/>
        <path id="Caminho_133" data-name="Caminho 133" d="M426.066,240.049V225.786l7.169,7.131-7.169,7.131Z" fill="#da000a" fill-rule="evenodd"/>
        <path id="Caminho_134" data-name="Caminho 134" d="M426.067,240.049h-14.23l7.142-7.165,7.115,7.138-.027.027Z" fill="#da000a" fill-rule="evenodd"/>
        <path id="Caminho_135" data-name="Caminho 135" d="M435.538,235.864h1.317v-2.505H439.4v2.505h1.317v-5.973H439.4v2.435h-2.548v-2.435h-1.317v5.973Z"/>
        <path id="Caminho_136" data-name="Caminho 136" d="M441.435,234.012c.009,1.439,1.105,1.986,2.35,1.986,1.574,0,2.569-.778,2.569-1.874,0-1.355-1.324-1.587-1.779-1.723-1.44-.43-1.646-.51-1.646-.97,0-.5.5-.728.9-.728a.871.871,0,0,1,.992.861h1.317c.018-1.291-.941-1.781-2.252-1.781-1.148,0-2.326.552-2.326,1.773,0,1.121.936,1.459,1.787,1.723.936.292,1.591.3,1.591.941,0,.585-.635.808-1.082.808a.965.965,0,0,1-1.093-1.016Z"/>
        <path id="Caminho_137" data-name="Caminho 137" d="M448.323,233.254H449.4c.564,0,1.023.243,1.023.853s-.516.837-1.047.837h-1.055v-1.69Zm-1.29,2.61h2.5c1.145,0,2.292-.41,2.292-1.681a1.414,1.414,0,0,0-1.354-1.406c.8-.251,1.135-.719,1.135-1.3,0-1.112-.952-1.58-2.021-1.58h-2.551v5.972Zm1.29-5.027h.958c.458,0,.982.192.982.761a.813.813,0,0,1-.884.778h-1.056v-1.539Z"/>
        <path id="Caminho_138" data-name="Caminho 138" d="M457.634,231.69c-.058-1.207-1.031-1.924-2.4-1.924-1.848,0-2.894,1.247-2.894,3.137,0,2.024.962,3.1,2.894,3.1a2.122,2.122,0,0,0,2.39-1.919h-1.357a1.02,1.02,0,0,1-1.091.907c-1.1,0-1.473-1.071-1.473-2.066,0-1.046.427-2.133,1.548-2.133a.967.967,0,0,1,.986.9Z"/>
      </g>
    </g>
    <g id="Grupo_499" data-name="Grupo 499">
      <rect id="Rectangle_198-5" data-name="Rectangle 198" width="76" height="40" rx="4" transform="translate(45.715 212.918)" fill="#f48120"/>
      <g id="itau">
        <path id="Caminho_139" data-name="Caminho 139" d="M68.431,217.468v30.9H99v-30.9Z" fill="#f48120" fill-rule="evenodd"/>
        <path id="Caminho_140" data-name="Caminho 140" d="M77.4,222.95l12.667.008a3.634,3.634,0,0,1,3.618,3.635v12.666a3.64,3.64,0,0,1-3.634,3.626l-12.675-.008a3.645,3.645,0,0,1-3.626-3.634l.016-12.667A3.636,3.636,0,0,1,77.4,222.95Z" fill="#2e3191" fill-rule="evenodd"/>
        <path id="Caminho_141" data-name="Caminho 141" d="M90.882,232.04H89.436l-.6,1.135h1.013l1.029-1.135Zm.955,1.846h-1.4v3.038a1.061,1.061,0,0,1-1.087,1.192c-.441,0-.923-.163-.914-.972v-3.258H87.019l-.008,3.462a1.71,1.71,0,0,0,1.829,1.936,1.755,1.755,0,0,0,1.625-.882h.017v.735h1.355v-5.251Z" fill="#fff100" fill-rule="evenodd"/>
        <path id="Caminho_142" data-name="Caminho 142" d="M85.916,235.274c0-1.3-1.364-1.535-2.123-1.535-1.1,0-2.238.236-2.409,1.845h1.364a.761.761,0,0,1,.873-.735c.36,0,.931.033.931.613,0,.294-.277.384-.506.416l-1.266.188a1.622,1.622,0,0,0-1.568,1.682,1.5,1.5,0,0,0,1.634,1.536,2.185,2.185,0,0,0,1.731-.76,2.4,2.4,0,0,0,.139.613l1.208-.008c0-.58-.008-1.005-.008-1.013v-2.842Z" fill="#fff100" fill-rule="evenodd"/>
        <path id="Caminho_143" data-name="Caminho 143" d="M79.914,232.04h-1.4v1.837h-.727v.989H78.5v3.193c0,.678.22,1.143,1.437,1.143h.188c.221,0,.449-.016.662-.024v-1.054c-.1.008-.205.025-.294.025-.572,0-.588-.115-.588-.433l.008-2.85H80.8v-.989h-.882V232.04Z" fill="#fff100" fill-rule="evenodd"/>
        <path id="Caminho_144" data-name="Caminho 144" d="M77.129,232.032H75.61l-.008,7.1h1.519l.008-7.1Z" fill="#fff100" fill-rule="evenodd"/>
        <path id="Caminho_145" data-name="Caminho 145" d="M84.552,237.258v-.677a2.143,2.143,0,0,1-.963.277c-.531.09-.964.229-.964.8a.62.62,0,0,0,.662.628,1.166,1.166,0,0,0,1.265-1.029Z" fill="#2e3191" fill-rule="evenodd"/>
      </g>
    </g>
    <g id="Grupo_501" data-name="Grupo 501">
      <rect id="Rectangle_198-6" data-name="Rectangle 198" width="76" height="40" rx="4" transform="translate(306.3 212.918)" fill="#ee2c42"/>
      <g id="Grupo_500" data-name="Grupo 500">
        <path id="Caminho_146" data-name="Caminho 146" d="M319.231,227.708c0,1.415,2.373,2.987,2.373,4.6a.994.994,0,0,1-.065.323c2.218.468,3.79,1.572,3.79,2.865,0,1.738-2.8,3.176-6.274,3.176-3.546,0-6.294-1.414-6.294-3.11,0-1.292,1.7-2.341,3.757-2.9,0,.713,2.338,2.976,2.395,3.889a.921.921,0,0,1,0,.3c.505-.267.505-1.1.505-1.1,0-1.984-2.274-2.864-2.274-4.815a1.662,1.662,0,0,1,.67-1.47v.545c0,1.416,2.461,3,2.461,4.291v.424c.572-.223.572-1.282.572-1.282,0-1.783-2.285-2.775-2.285-4.815a1.667,1.667,0,0,1,.669-1.471Z" fill="#fff"/>
        <path id="Caminho_147" data-name="Caminho 147" d="M330.316,238.126a6.125,6.125,0,0,1-2.064-.345v-2.105h.3a2.125,2.125,0,0,0,1.943,1.96,1.434,1.434,0,0,0,1.625-1.381c0-.9-.889-1.314-1.482-1.615l-.857-.434a2.332,2.332,0,0,1-1.47-2.016,2.215,2.215,0,0,1,2.491-2.172,5.975,5.975,0,0,1,2.042.379v1.882h-.3c-.176-1-.724-1.793-1.844-1.793a1.228,1.228,0,0,0-1.328,1.169c0,.769.526,1.114,1.141,1.426l.857.434a2.669,2.669,0,0,1,1.745,2.206c0,1.447-.988,2.405-2.8,2.405" fill="#fff"/>
        <path id="Caminho_148" data-name="Caminho 148" d="M335.849,235.831a.879.879,0,0,0-.638.825.717.717,0,0,0,.737.758,1.679,1.679,0,0,0,.933-.379v-1.649Zm-.451,2.25a1.166,1.166,0,0,1-1.229-1.246c0-.535.384-.947,1.229-1.26l1.483-.545v-.469c0-.7-.319-1.135-.8-1.135a.98.98,0,0,0-.824.435.681.681,0,0,0-.076.356,1.049,1.049,0,0,0,.12.411l-.724.335a1.337,1.337,0,0,1-.2-.624c0-.044.01-.089.01-.122.055-.4.4-.669.857-.946a2.12,2.12,0,0,1,1.108-.357,1.5,1.5,0,0,1,1.625,1.481v2.3c0,.367.034.6.33.6a.612.612,0,0,0,.263-.045l.264-.089v.334l-1.538.579a1.115,1.115,0,0,1-.383-.723,2.733,2.733,0,0,1-1.516.723" fill="#fff"/>
        <path id="Caminho_149" data-name="Caminho 149" d="M339.175,237.97V237.7l.362-.068a.44.44,0,0,0,.373-.435v-2.973c0-.256-.12-.39-.34-.39a.719.719,0,0,0-.252.045l-.143.055V233.6l1.581-.69h.231v.824a2.168,2.168,0,0,1,1.558-.824,1.6,1.6,0,0,1,1.658,1.759V237.2a.441.441,0,0,0,.385.435l.372.068v.266h-2.612V237.7l.362-.068a.461.461,0,0,0,.4-.435v-2.516a.947.947,0,0,0-.966-1.081,1.754,1.754,0,0,0-1.131.524V237.2a.461.461,0,0,0,.4.435l.362.068v.266Z" fill="#fff"/>
        <path id="Caminho_150" data-name="Caminho 150" d="M348.748,233.593h-1.537v2.763c0,.612.318.946.779.946a1.632,1.632,0,0,0,.758-.212l.12.268-.988.634a2.535,2.535,0,0,1-.3.033c-.956,0-1.472-.567-1.472-1.77v-2.662h-.8v-.277a3.264,3.264,0,0,0,1.679-1.616h.22v1.414h1.735Z" fill="#fff"/>
        <path id="Caminho_151" data-name="Caminho 151" d="M351.05,235.831a.879.879,0,0,0-.636.825.715.715,0,0,0,.735.758,1.67,1.67,0,0,0,.933-.379v-1.649Zm-.45,2.25a1.166,1.166,0,0,1-1.229-1.246c0-.535.384-.947,1.229-1.26l1.482-.545v-.469c0-.7-.318-1.135-.8-1.135a.978.978,0,0,0-.823.435.673.673,0,0,0-.078.356,1.037,1.037,0,0,0,.122.411l-.725.335a1.337,1.337,0,0,1-.2-.624c0-.044.011-.089.011-.122.054-.4.394-.669.855-.946a2.125,2.125,0,0,1,1.109-.357,1.5,1.5,0,0,1,1.626,1.481v2.3c0,.367.033.6.329.6a.612.612,0,0,0,.263-.045l.264-.089v.334l-1.537.579a1.116,1.116,0,0,1-.384-.723,2.729,2.729,0,0,1-1.516.723" fill="#fff"/>
        <path id="Caminho_152" data-name="Caminho 152" d="M354.376,237.97V237.7l.363-.068a.442.442,0,0,0,.374-.435v-2.973c0-.256-.122-.39-.341-.39a.724.724,0,0,0-.253.045l-.143.055V233.6l1.582-.69h.231v.824a2.17,2.17,0,0,1,1.558-.824,1.6,1.6,0,0,1,1.658,1.759V237.2a.441.441,0,0,0,.384.435l.373.068v.266H357.55V237.7l.362-.068a.46.46,0,0,0,.4-.435v-2.516a.947.947,0,0,0-.966-1.081,1.751,1.751,0,0,0-1.131.524V237.2a.461.461,0,0,0,.4.435l.363.068v.266Z" fill="#fff"/>
        <path id="Caminho_153" data-name="Caminho 153" d="M363.445,233.382c-.79,0-1.6.512-1.6,2,0,1.248.615,2.005,1.581,2.005a1.184,1.184,0,0,0,1.032-.524v-2.9a1.041,1.041,0,0,0-1.01-.59m-.494,4.7a2.31,2.31,0,0,1-2.273-2.472,2.641,2.641,0,0,1,2.646-2.695,2.827,2.827,0,0,1,1.131.212v-2.551c0-.267-.143-.345-.319-.345a1.009,1.009,0,0,0-.307.055l-.22.078v-.334l1.714-.735h.23v7.34c0,.423.065.668.362.668a.612.612,0,0,0,.263-.045l.264-.089v.334l-1.537.579a1.191,1.191,0,0,1-.417-.734,2.1,2.1,0,0,1-1.537.734" fill="#fff"/>
        <path id="Caminho_154" data-name="Caminho 154" d="M370.3,234.64v-.022c0-.835-.46-1.237-1.01-1.237-.615,0-1.076.413-1.208,1.259Zm-2.25.457v.056c-.011,1.481.823,2.227,1.866,2.227a2.273,2.273,0,0,0,1.394-.5v.445a2.818,2.818,0,0,1-1.932.757,2.388,2.388,0,0,1-2.47-2.539,2.546,2.546,0,0,1,2.492-2.628,1.98,1.98,0,0,1,2.053,2.038v.145Z" fill="#fff"/>
        <path id="Caminho_155" data-name="Caminho 155" d="M372.1,237.97V237.7l.361-.068a.45.45,0,0,0,.374-.435v-2.973c0-.256-.121-.39-.34-.39a.715.715,0,0,0-.252.045l-.143.055V233.6l1.558-.69h.231v1.08c.395-.779.868-1.1,1.4-1.1.44,0,.549.111.549.111v1.181h-.219a.536.536,0,0,0-.593-.468,1.127,1.127,0,0,0-1.1.745v2.74a.494.494,0,0,0,.429.435l.527.068v.266Z" fill="#fff"/>
      </g>
    </g>
  </g>
</svg>
