<svg xmlns="http://www.w3.org/2000/svg" xmlns:xlink="http://www.w3.org/1999/xlink" width="41.758" height="22.029" viewBox="0 0 41.758 22.029">
  <defs>
    <clipPath id="clip-path">
      <path id="Caminho_89" data-name="Caminho 89" d="M328.281,342.143a9.946,9.946,0,0,1-2.014-1.594,6.51,6.51,0,0,0-1.287-1.035,4.665,4.665,0,0,0-1.035-.475v.028s-.224.7-.224.756-.056.112-.027.168a2.925,2.925,0,0,1,.559.616c.307.224.811.588.9.672.056.056.14.112.084.252-.084.112-.224-.084-.307-.084a10.82,10.82,0,0,0-1.091-.616l-.475-.224a5.13,5.13,0,0,1-1.79-.084s-.14-.056-.2.056c-.056.084-.084.084-.084.084-.056-.056-.056-.168,0-.2.2-.14-.056-.336.112-.475a2.384,2.384,0,0,1,.364-.391c.391.112.756.224,1.119.364,0,0,.224.028.252-.084l.112-.14c0-.084.084-.615.084-.615,0-.084.028-.168.028-.252a3.624,3.624,0,0,1-.42-.14,10.162,10.162,0,0,1-1.259-.447,1.646,1.646,0,0,0-.588.391,5.87,5.87,0,0,0-.2,1.063,5.487,5.487,0,0,0-.252.951,2.779,2.779,0,0,1,.559.588,5.445,5.445,0,0,1,.9.643s.168.111.084.224c-.14.14-.224-.056-.307-.112l-1.091-.559s-.391-.224-.447-.2a4.8,4.8,0,0,1-1.847-.084.171.171,0,0,0-.168.056.174.174,0,0,1-.112.056s-.028-.112,0-.14c.224-.2-.028-.336.112-.475.14-.168.252-.391.363-.391a7.71,7.71,0,0,1,1.147.307s.2,0,.252-.084c.028-.028.279-1.427.279-1.567a1.761,1.761,0,0,0-.027-.391,2.742,2.742,0,0,1-.559-.588,5.928,5.928,0,0,0-.615-.951c-.252-.252-2.014-2.155-2.6-2.77a4.772,4.772,0,0,1-1.483-3.05,8.717,8.717,0,0,1,.616-3.077,2.223,2.223,0,0,0,.027-1.958,1.088,1.088,0,0,0-1.287-.364,5.266,5.266,0,0,0-1.958,1.008c-.084.056-.084-.111-.028-.2a10.611,10.611,0,0,1,1.008-.867,4.68,4.68,0,0,1,1.622-.7s.084,0,.084-.028c-.168-.307-.7-1.287-.588-1.483a.413.413,0,0,1,.14-.084c.028-.252-.224-.447-.279-.559a.476.476,0,0,1-.084-.28c0-.2.252-.084.252-.084.028,0,.112.084.14,0a1.976,1.976,0,0,1,.336-.756,3.075,3.075,0,0,0,.252-.588.97.97,0,0,0,.2.028c.14,0,.168.084.168.084,0,.084-.112.307,0,.42.084.056.084-.224.084-.307a2.114,2.114,0,0,1,.224-.42,4.031,4.031,0,0,1,.363-.252c.028,0,.112-.028.168.028-.056.475-.307,1.147-.28,1.371.028.168.056,0,.084-.112l.224-.811c.028-.028.559-.672.588-.7.056-.028.2.056.391,0,.14-.028.364-.112.391.056-.056.364-.168,1.063-.084,1.091.056.028.643-.756,1.035-1.035.2-.084.168.28.364.307.2,0,0,.28.2.364.2.056-.112.252-.168.391,0,.224.14.447.056.643a2.915,2.915,0,0,0-.168,1.008s.084-.084.14-.084c.224.14.056.42.112.588,0,.336-.279.559-.475.811a8.314,8.314,0,0,0-.531,1.008,3.273,3.273,0,0,0-.168.783,5.333,5.333,0,0,0,.448,1.987,7.806,7.806,0,0,0,2.071,1.651,6.106,6.106,0,0,1,1.371,1.427c.307.42,1.147,1.51,1.342,1.79.252.307.783,1.147,1.147,1.735.363.559.7,1.119,1.119,1.678.5.448.979.924,1.483,1.455.112.056.084.224.084.307a.18.18,0,0,0,0,.168,22.887,22.887,0,0,0,2.546,1.958c.084,0,.588.9.252,1.4,0,.2-.168.28-.364.391A1.392,1.392,0,0,1,328.281,342.143Z" transform="translate(-312.409 -320.473)"/>
    </clipPath>
  </defs>
  <g id="repica" transform="translate(-101.3 -320.473)">
    <g id="Grupo_279" data-name="Grupo 279" transform="translate(101.3 320.764)">
      <g id="Grupo_278" data-name="Grupo 278" transform="translate(0 0)">
        <path id="Caminho_87" data-name="Caminho 87" d="M125.08,343.742h-1.647c-5.564,0-8.517-2.176-11.066-7.367h-.559a3.425,3.425,0,0,1-.559-.031v4.725l3.077,2.673H101.3l2.923-2.673V325.9L101.3,323.04h10.227c6.59,0,11,2.394,11,6.372,0,1.9-1.461,3.731-3.668,5.067C120.6,337.619,122.842,340.292,125.08,343.742Zm-9.822-13.989c0-3.295-1.119-4.725-4.01-5.1v9.574h.155C114.293,334.229,115.258,332.582,115.258,329.753Z" transform="translate(-101.3 -323.04)" fill="#fff"/>
      </g>
    </g>
    <g id="Grupo_281" data-name="Grupo 281" transform="translate(125.252 320.473)">
      <path id="Caminho_88" data-name="Caminho 88" d="M328.281,342.143a9.946,9.946,0,0,1-2.014-1.594,6.51,6.51,0,0,0-1.287-1.035,4.665,4.665,0,0,0-1.035-.475v.028s-.224.7-.224.756-.056.112-.027.168a2.925,2.925,0,0,1,.559.616c.307.224.811.588.9.672.056.056.14.112.084.252-.084.112-.224-.084-.307-.084a10.82,10.82,0,0,0-1.091-.616l-.475-.224a5.13,5.13,0,0,1-1.79-.084s-.14-.056-.2.056c-.056.084-.084.084-.084.084-.056-.056-.056-.168,0-.2.2-.14-.056-.336.112-.475a2.384,2.384,0,0,1,.364-.391c.391.112.756.224,1.119.364,0,0,.224.028.252-.084l.112-.14c0-.084.084-.615.084-.615,0-.084.028-.168.028-.252a3.624,3.624,0,0,1-.42-.14,10.162,10.162,0,0,1-1.259-.447,1.646,1.646,0,0,0-.588.391,5.87,5.87,0,0,0-.2,1.063,5.487,5.487,0,0,0-.252.951,2.779,2.779,0,0,1,.559.588,5.445,5.445,0,0,1,.9.643s.168.111.084.224c-.14.14-.224-.056-.307-.112l-1.091-.559s-.391-.224-.447-.2a4.8,4.8,0,0,1-1.847-.084.171.171,0,0,0-.168.056.174.174,0,0,1-.112.056s-.028-.112,0-.14c.224-.2-.028-.336.112-.475.14-.168.252-.391.363-.391a7.71,7.71,0,0,1,1.147.307s.2,0,.252-.084c.028-.028.279-1.427.279-1.567a1.761,1.761,0,0,0-.027-.391,2.742,2.742,0,0,1-.559-.588,5.928,5.928,0,0,0-.615-.951c-.252-.252-2.014-2.155-2.6-2.77a4.772,4.772,0,0,1-1.483-3.05,8.717,8.717,0,0,1,.616-3.077,2.223,2.223,0,0,0,.027-1.958,1.088,1.088,0,0,0-1.287-.364,5.266,5.266,0,0,0-1.958,1.008c-.084.056-.084-.111-.028-.2a10.611,10.611,0,0,1,1.008-.867,4.68,4.68,0,0,1,1.622-.7s.084,0,.084-.028c-.168-.307-.7-1.287-.588-1.483a.413.413,0,0,1,.14-.084c.028-.252-.224-.447-.279-.559a.476.476,0,0,1-.084-.28c0-.2.252-.084.252-.084.028,0,.112.084.14,0a1.976,1.976,0,0,1,.336-.756,3.075,3.075,0,0,0,.252-.588.97.97,0,0,0,.2.028c.14,0,.168.084.168.084,0,.084-.112.307,0,.42.084.056.084-.224.084-.307a2.114,2.114,0,0,1,.224-.42,4.031,4.031,0,0,1,.363-.252c.028,0,.112-.028.168.028-.056.475-.307,1.147-.28,1.371.028.168.056,0,.084-.112l.224-.811c.028-.028.559-.672.588-.7.056-.028.2.056.391,0,.14-.028.364-.112.391.056-.056.364-.168,1.063-.084,1.091.056.028.643-.756,1.035-1.035.2-.084.168.28.364.307.2,0,0,.28.2.364.2.056-.112.252-.168.391,0,.224.14.447.056.643a2.915,2.915,0,0,0-.168,1.008s.084-.084.14-.084c.224.14.056.42.112.588,0,.336-.279.559-.475.811a8.314,8.314,0,0,0-.531,1.008,3.273,3.273,0,0,0-.168.783,5.333,5.333,0,0,0,.448,1.987,7.806,7.806,0,0,0,2.071,1.651,6.106,6.106,0,0,1,1.371,1.427c.307.42,1.147,1.51,1.342,1.79.252.307.783,1.147,1.147,1.735.363.559.7,1.119,1.119,1.678.5.448.979.924,1.483,1.455.112.056.084.224.084.307a.18.18,0,0,0,0,.168,22.887,22.887,0,0,0,2.546,1.958c.084,0,.588.9.252,1.4,0,.2-.168.28-.364.391A1.392,1.392,0,0,1,328.281,342.143Z" transform="translate(-312.409 -320.473)" fill="#d71920"/>
      <g id="Grupo_280" data-name="Grupo 280" transform="translate(0 0)" clip-path="url(#clip-path)">
        <rect id="Retângulo_146" data-name="Retângulo 146" width="43.701" height="31.381" transform="translate(-16.246 18.181) rotate(-45)" fill="#d71920"/>
      </g>
    </g>
  </g>
</svg>
